<?xml version="1.0" encoding="utf-8"?>
<!-- Generator: Adobe Illustrator 24.0.0, SVG Export Plug-In . SVG Version: 6.00 Build 0)  -->
<svg version="1.1" id="Layer_1" xmlns="http://www.w3.org/2000/svg" xmlns:xlink="http://www.w3.org/1999/xlink" x="0px" y="0px"
	 viewBox="0 0 100 100" style="enable-background:new 0 0 100 100;" xml:space="preserve">
<style type="text/css">
	.st0{fill:#C3DAFD;}
	.st1{fill:#A1B8D8;}
	.st2{fill:#ECC443;}
	.st3{fill:#E39069;}
	.st4{fill:#2B4CA1;}
	.st5{fill:#213B82;}
	.st6{fill:#E4F3FF;}
	.st7{fill:#84D9F3;}
	.st8{fill:#77B0FB;}
</style>
<g>
	<path class="st0" d="M38.27,70.32l-13.12,0l0-11.03l4.97-8.88l8.15,0L38.27,70.32z"/>
	<path class="st1" d="M73.76,70.32l-13.12,0l0-19.91l8.16,0l4.96,8.88V70.32z"/>
	<path class="st2" d="M47.72,92.8V75.56h3.45V92.8H47.72z"/>
	<path class="st3" d="M49.47,92.8V75.55h1.71V92.8H49.47z"/>
	<path class="st3" d="M54.73,84.61v-9.06h3.46v9.06H54.73z"/>
	<path class="st2" d="M40.72,84.61v-9.06h3.45v9.06H40.72z"/>
	<path class="st4" d="M61.81,66.18l-24.67,0l-2.31,4.13l2.81,6.96l23.46,0l3.01-6.96L61.81,66.18z"/>
	<path class="st5" d="M49.48,66.84c0,1.42,0,10.41,0,10.44c1.07,0,11.01,0,11.62,0l3.01-6.96l-2.31-3.48L49.48,66.84z"/>
	<path class="st6" d="M60.93,28.14c-4.16-10.75-10.76-16.19-11.45-17.03c-0.36,0.54-15.03,12.66-14.65,34.88l0,24.33l29.29,0
		l0-24.33C64.22,39.98,63.12,33.81,60.93,28.14L60.93,28.14z"/>
	<path class="st0" d="M60.93,28.14c-4.16-10.75-10.76-16.19-11.45-17.03c0,0,0,0,0,0l0,59.21l14.64,0l0-24.33
		C64.22,39.98,63.12,33.81,60.93,28.14L60.93,28.14z"/>
	<path class="st7" d="M49.47,50.43c-6.94,0-10.57-8.46-5.58-13.46c4.96-4.97,13.46-1.41,13.46,5.58
		C57.36,46.9,53.82,50.43,49.47,50.43z"/>
	<path class="st8" d="M49.48,34.66l0,15.77c4.35,0,7.88-3.54,7.88-7.88C57.36,37.85,53.51,34.7,49.48,34.66z"/>
</g>
<g>
</g>
<g>
</g>
<g>
</g>
<g>
</g>
<g>
</g>
<g>
</g>
<g>
</g>
<g>
</g>
<g>
</g>
<g>
</g>
<g>
</g>
<g>
</g>
<g>
</g>
<g>
</g>
<g>
</g>
</svg>
