<?xml version="1.0" encoding="utf-8"?>
<!-- Generator: Adobe Illustrator 24.0.0, SVG Export Plug-In . SVG Version: 6.00 Build 0)  -->
<svg version="1.1" id="Layer_1" xmlns="http://www.w3.org/2000/svg" xmlns:xlink="http://www.w3.org/1999/xlink" x="0px" y="0px"
	 viewBox="0 0 649.43 182.6" style="enable-background:new 0 0 649.43 182.6;" xml:space="preserve">
<style type="text/css">
	.st0{fill:#29ABE2;}
	.st1{fill:url(#SVGID_1_);}
	.st2{fill:url(#SVGID_2_);}
	.st3{fill:url(#SVGID_3_);}
	.st4{fill:url(#SVGID_4_);}
	.st5{fill:url(#SVGID_5_);}
</style>
<g>
	<path class="st0" d="M217.28,66.92c1.64,1.67,2.46,3.85,2.46,6.53v53.74c0,2.75-0.8,4.96-2.41,6.63c-1.61,1.67-3.68,2.51-6.23,2.51
		c-3.01,0-5.29-1-6.83-3.01l-30.53-38.07v31.94c0,2.75-0.77,4.96-2.31,6.63c-1.54,1.67-3.62,2.51-6.23,2.51
		c-2.55,0-4.62-0.84-6.23-2.51c-1.61-1.67-2.41-3.88-2.41-6.63V73.45c0-2.68,0.8-4.85,2.41-6.53c1.61-1.67,3.68-2.51,6.23-2.51
		c2.88,0,5.12,1,6.73,3.01l30.53,37.97V73.45c0-2.74,0.79-4.94,2.36-6.58c1.57-1.64,3.63-2.46,6.18-2.46
		C213.55,64.41,215.64,65.25,217.28,66.92z"/>
	<path class="st0" d="M275.33,121.66c0.97,1.21,1.46,2.78,1.46,4.72c0,2.68-1.31,4.72-3.92,6.13c-2.28,1.14-4.97,2.09-8.09,2.86
		s-5.98,1.16-8.59,1.16c-5.49,0-10.28-1.04-14.36-3.11c-4.09-2.07-7.23-5.06-9.44-8.94c-2.21-3.88-3.31-8.44-3.31-13.66
		c0-4.95,1.05-9.39,3.16-13.31c2.11-3.92,5.06-6.96,8.84-9.14c3.78-2.18,8.05-3.26,12.81-3.26c4.62,0,8.67,1,12.15,3.01
		c3.48,2.01,6.18,4.86,8.09,8.54c1.91,3.68,2.86,8,2.86,12.96c0,1.54-0.35,2.73-1.05,3.57c-0.7,0.84-1.73,1.26-3.06,1.26h-26.52
		c0.47,3.21,1.51,5.52,3.11,6.93c1.61,1.41,3.98,2.11,7.13,2.11c1.67,0,3.21-0.18,4.62-0.55c1.41-0.37,2.98-0.89,4.72-1.56
		c1-0.4,1.99-0.75,2.96-1.05c0.97-0.3,1.86-0.45,2.66-0.45C273.11,119.85,274.36,120.46,275.33,121.66z M248.77,99.41
		c-1.41,1.51-2.24,3.7-2.51,6.58h15.77c-0.4-5.89-2.95-8.84-7.63-8.84C252.05,97.15,250.17,97.91,248.77,99.41z"/>
	<path class="st0" d="M352.88,86.56c1.24-0.84,2.59-1.26,4.07-1.26c2.21,0,4.18,0.75,5.93,2.26c1.74,1.51,2.61,3.33,2.61,5.47
		c0,1-0.27,2.11-0.8,3.31l-16.27,34.85c-0.74,1.67-1.86,2.96-3.36,3.87c-1.51,0.9-3.16,1.36-4.97,1.36c-1.81,0-3.45-0.45-4.92-1.36
		c-1.47-0.9-2.58-2.19-3.31-3.87l-9.54-21.19l-8.94,21.19c-0.67,1.67-1.76,2.96-3.26,3.87c-1.51,0.9-3.16,1.36-4.97,1.36
		s-3.47-0.45-4.97-1.36c-1.51-0.9-2.66-2.19-3.47-3.87l-16.17-34.85c-0.47-1-0.7-2.07-0.7-3.21c0-2.21,0.92-4.07,2.76-5.57
		c1.84-1.51,3.9-2.26,6.18-2.26c1.61,0,3.06,0.42,4.37,1.26c1.31,0.84,2.29,2.13,2.96,3.87l9.54,23.2l9.74-23.1
		c0.67-1.67,1.71-2.95,3.11-3.82c1.41-0.87,2.91-1.31,4.52-1.31s3.11,0.44,4.52,1.31c1.41,0.87,2.44,2.14,3.11,3.82l10.04,23.2
		l9.34-23.4C350.68,88.65,351.64,87.39,352.88,86.56z"/>
	<path class="st0" d="M379.34,135.52c-3.08-0.67-5.79-1.74-8.14-3.21c-0.94-0.47-1.67-1.27-2.21-2.41c-0.54-1.14-0.8-2.41-0.8-3.82
		c0-1.81,0.48-3.3,1.46-4.47c0.97-1.17,2.19-1.76,3.67-1.76c1,0,1.94,0.12,2.81,0.35c0.87,0.24,1.94,0.62,3.21,1.16
		c2.14,0.74,4.03,1.31,5.68,1.71c1.64,0.4,3.73,0.6,6.28,0.6c1.81,0,3.23-0.25,4.27-0.75c1.04-0.5,1.56-1.22,1.56-2.16
		c0-0.74-0.25-1.31-0.75-1.71s-1.46-0.79-2.86-1.15c-1.41-0.37-3.78-0.89-7.13-1.56c-5.96-1.14-10.26-2.86-12.91-5.17
		c-2.65-2.31-3.97-5.57-3.97-9.79c0-3.08,0.95-5.86,2.86-8.34c1.91-2.48,4.54-4.42,7.88-5.83c3.35-1.41,7.1-2.11,11.25-2.11
		c3.01,0,5.94,0.37,8.79,1.1c2.85,0.74,5.37,1.78,7.58,3.11c2.07,1.21,3.11,3.15,3.11,5.83c0,1.88-0.5,3.45-1.51,4.72
		c-1,1.27-2.24,1.91-3.72,1.91c-1.74,0-3.82-0.57-6.23-1.71c-1.61-0.74-3.03-1.29-4.27-1.66c-1.24-0.37-2.7-0.55-4.37-0.55
		c-1.67,0-2.98,0.25-3.92,0.75c-0.94,0.5-1.41,1.22-1.41,2.16c0,1.07,0.65,1.91,1.96,2.51c1.31,0.6,3.9,1.27,7.78,2.01
		c6.49,1.14,11.08,2.86,13.76,5.17c2.68,2.31,4.02,5.64,4.02,9.99c0,4.89-2.03,8.79-6.08,11.7c-4.05,2.91-9.49,4.37-16.32,4.37
		C386.21,136.53,382.42,136.19,379.34,135.52z"/>
	<path class="st0" d="M475.57,65.61c1.34-0.8,2.81-1.21,4.42-1.21c2.41,0,4.59,0.77,6.53,2.31c1.94,1.54,2.91,3.48,2.91,5.83
		c0,1.14-0.3,2.31-0.9,3.52l-26.52,54.74c-0.87,1.81-2.18,3.2-3.92,4.17c-1.74,0.97-3.62,1.46-5.63,1.46
		c-2.01,0-3.88-0.49-5.63-1.46c-1.74-0.97-3.05-2.36-3.92-4.17l-26.52-54.74c-0.54-1.07-0.8-2.24-0.8-3.52c0-2.28,1-4.2,3.01-5.78
		c2.01-1.57,4.25-2.36,6.73-2.36c1.61,0,3.1,0.4,4.47,1.21c1.37,0.8,2.43,2.01,3.16,3.62l19.79,42.79l19.69-42.79
		C473.19,67.62,474.23,66.42,475.57,65.61z"/>
	<path class="st0" d="M500.43,75.91c-1.77-1.57-2.66-3.67-2.66-6.28c0-2.61,0.89-4.69,2.66-6.23c1.77-1.54,4.17-2.31,7.18-2.31
		c2.95,0,5.32,0.77,7.13,2.31c1.81,1.54,2.71,3.62,2.71,6.23c0,2.61-0.89,4.71-2.66,6.28c-1.78,1.57-4.17,2.36-7.18,2.36
		C504.6,78.27,502.2,77.48,500.43,75.91z M501.23,134.27c-1.71-1.37-2.56-3.43-2.56-6.18V93.54c0-2.75,0.85-4.8,2.56-6.18
		c1.71-1.37,3.83-2.06,6.38-2.06s4.67,0.69,6.38,2.06c1.71,1.37,2.56,3.43,2.56,6.18v34.55c0,2.75-0.85,4.81-2.56,6.18
		c-1.71,1.37-3.83,2.06-6.38,2.06S502.94,135.64,501.23,134.27z"/>
	<path class="st0" d="M563.66,86.86c1.34,1.24,2.01,3.06,2.01,5.47c0,2.68-0.62,4.62-1.86,5.83c-1.24,1.21-3.46,1.98-6.68,2.31
		l-3.01,0.3c-3.35,0.4-5.74,1.46-7.18,3.16c-1.44,1.71-2.16,4.04-2.16,6.98v17.18c0,2.75-0.85,4.81-2.56,6.18
		c-1.71,1.37-3.83,2.06-6.38,2.06s-4.67-0.69-6.38-2.06c-1.71-1.37-2.56-3.43-2.56-6.18V93.34c0-2.54,0.85-4.52,2.56-5.93
		c1.71-1.41,3.77-2.11,6.18-2.11c2.48,0,4.47,0.67,5.98,2.01c1.51,1.34,2.26,3.21,2.26,5.63v1.91c1.07-2.95,2.83-5.22,5.27-6.83
		c2.44-1.61,5-2.48,7.68-2.61l1.41-0.1C560.51,85.1,562.32,85.62,563.66,86.86z"/>
	<path class="st0" d="M609.01,90.57c3.65,3.65,5.47,9.19,5.47,16.62v20.99c0,2.55-0.75,4.54-2.26,5.98
		c-1.51,1.44-3.6,2.16-6.28,2.16c-2.34,0-4.27-0.67-5.78-2.01c-1.51-1.34-2.33-3.15-2.46-5.42c-0.94,2.41-2.51,4.29-4.72,5.62
		c-2.21,1.34-4.86,2.01-7.94,2.01c-3.42,0-6.5-0.69-9.24-2.06c-2.75-1.37-4.91-3.28-6.48-5.73c-1.57-2.44-2.36-5.21-2.36-8.29
		c0-3.55,0.92-6.38,2.76-8.49c1.84-2.11,4.77-3.63,8.79-4.57c4.02-0.94,9.44-1.41,16.27-1.41h2.71v-1.21c0-2.34-0.54-4.03-1.61-5.07
		c-1.07-1.04-2.88-1.56-5.42-1.56c-2.75,0-6.76,0.94-12.05,2.81c-1.54,0.54-2.85,0.8-3.92,0.8c-1.67,0-3.01-0.6-4.02-1.81
		c-1-1.21-1.51-2.78-1.51-4.72c0-1.47,0.3-2.68,0.9-3.62c0.6-0.94,1.57-1.77,2.91-2.51c2.34-1.21,5.29-2.18,8.84-2.91
		c3.55-0.74,7.03-1.1,10.45-1.1C599.71,85.1,605.35,86.92,609.01,90.57z M595.19,122.01c1.54-1.71,2.31-3.9,2.31-6.58v-1.21h-1.61
		c-4.29,0-7.33,0.39-9.14,1.16c-1.81,0.77-2.71,2.06-2.71,3.87c0,1.54,0.48,2.81,1.46,3.82c0.97,1,2.23,1.51,3.77,1.51
		C591.68,124.57,593.65,123.72,595.19,122.01z"/>
	<path class="st0" d="M627.08,134.27c-1.71-1.37-2.56-3.43-2.56-6.18V72.74c0-2.74,0.85-4.82,2.56-6.23
		c1.71-1.41,3.83-2.11,6.38-2.11s4.67,0.7,6.38,2.11c1.71,1.41,2.56,3.48,2.56,6.23v55.34c0,2.75-0.85,4.81-2.56,6.18
		c-1.71,1.37-3.83,2.06-6.38,2.06S628.79,135.64,627.08,134.27z"/>
</g>
<g>
	<linearGradient id="SVGID_1_" gradientUnits="userSpaceOnUse" x1="15.1199" y1="88.2802" x2="95.6337" y2="88.2802">
		<stop  offset="0" style="stop-color:#FF546A"/>
		<stop  offset="1" style="stop-color:#CC3449"/>
	</linearGradient>
	<path class="st1" d="M15.12,33.58l80.51,109.4C95.63,142.98,71.58,35.16,15.12,33.58z"/>
	<linearGradient id="SVGID_2_" gradientUnits="userSpaceOnUse" x1="55.1488" y1="73.9335" x2="109.597" y2="73.9335">
		<stop  offset="0" style="stop-color:#FF546A"/>
		<stop  offset="1" style="stop-color:#CC3449"/>
	</linearGradient>
	<path class="st2" d="M55.15,34.21l54.45,79.46C109.6,113.66,95.36,37.1,55.15,34.21z"/>
	
		<linearGradient id="SVGID_3_" gradientUnits="userSpaceOnUse" x1="86.5985" y1="94.9916" x2="127.0986" y2="94.9916" gradientTransform="matrix(0.9969 0.133 -0.0792 0.9323 5.948 -41.1633)">
		<stop  offset="0" style="stop-color:#FF546A"/>
		<stop  offset="1" style="stop-color:#CC3449"/>
	</linearGradient>
	<path class="st3" d="M87.13,31.03l35.64,61.14C122.77,92.17,117.82,39.34,87.13,31.03z"/>
	<linearGradient id="SVGID_4_" gradientUnits="userSpaceOnUse" x1="122.6906" y1="45.8778" x2="146.6791" y2="45.8778">
		<stop  offset="0" style="stop-color:#FF546A"/>
		<stop  offset="1" style="stop-color:#CC3449"/>
	</linearGradient>
	<circle class="st4" cx="134.68" cy="45.88" r="11.99"/>
	<linearGradient id="SVGID_5_" gradientUnits="userSpaceOnUse" x1="137.255" y1="39.4523" x2="138.1118" y2="39.4523">
		<stop  offset="0" style="stop-color:#FF546A"/>
		<stop  offset="1" style="stop-color:#CC3449"/>
	</linearGradient>
	<ellipse class="st5" cx="137.68" cy="39.45" rx="0.43" ry="1.29"/>
</g>
<g>
</g>
<g>
</g>
<g>
</g>
<g>
</g>
<g>
</g>
<g>
</g>
<g>
</g>
<g>
</g>
<g>
</g>
<g>
</g>
<g>
</g>
<g>
</g>
<g>
</g>
<g>
</g>
<g>
</g>
</svg>
